<?xml version="1.0" encoding="UTF-8"?>
<svg width="700pt" height="700pt" version="1.1" viewBox="0 0 700 700" xmlns="http://www.w3.org/2000/svg">
 <path d="m513.33 303.33h-326.66c0 18.574 7.3711 36.379 20.508 49.492 13.113 13.137 30.918 20.508 49.492 20.508h36.234c4.6445 7.5625 5.4844 17.781 5.5312 28.188 0.070312 18.363-4.0586 37.848-8.1211 52.922-3.8242 14-0.88672 29 7.957 40.551 8.8203 11.551 22.539 18.34 37.078 18.34h29.141c14.586 0 28.328-6.8125 37.148-18.41 8.8203-11.594 11.738-26.645 7.8398-40.691-4.1523-15.074-8.3516-34.582-8.2617-52.922 0.046875-10.359 0.88672-20.531 5.625-27.977h36.492c18.574 0 36.379-7.3711 49.492-20.508 13.137-13.113 20.508-30.918 20.508-49.492zm-233.33-256.66h-23.332c-38.664 0-70 31.336-70 70v140h326.66v-140c0-38.664-31.336-70-70-70h-116.66v93.332c0 12.879-10.453 23.332-23.336 23.332-12.879 0-23.332-10.453-23.332-23.332z" fill="#fff"/>
</svg>
